<mxfile host="app.diagrams.net" modified="2024-01-22T10:18:40.183Z" agent="Mozilla/5.0 (Macintosh; Intel Mac OS X 10_15_7) AppleWebKit/605.1.15 (KHTML, like Gecko) Version/15.3 Safari/605.1.15" version="22.1.21" etag="AShHnV_jY2zMDe25oJA7" type="github">
  <diagram name="Page-1" id="UKfZSDUq4MczbuRbITae">
    <mxGraphModel>
      <root>
        <mxCell id="0" />
        <mxCell id="1" parent="0" />
      </root>
    </mxGraphModel>
  </diagram>
</mxfile>
